<?xml version="1.0" encoding="utf-8"?>
<!-- Generator: Adobe Illustrator 20.0.0, SVG Export Plug-In . SVG Version: 6.00 Build 0)  -->
<svg version="1.1" id="Слой_1" xmlns="http://www.w3.org/2000/svg" xmlns:xlink="http://www.w3.org/1999/xlink" x="0px" y="0px"
	 viewBox="0 0 22.2 15" style="enable-background:new 0 0 22.2 15;" xml:space="preserve">
<style type="text/css">
	.st0{fill:#fff;}
</style>
<path class="st0" d="M8.3,15c-0.3,0-0.6-0.1-0.8-0.3L0.3,7.5c-0.5-0.5-0.5-1.2,0-1.7c0.5-0.5,1.2-0.5,1.7,0L9.2,13
	c0.5,0.5,0.5,1.2,0,1.7C8.9,14.9,8.6,15,8.3,15L8.3,15z M8.3,15"/>
<path class="st0" d="M8.3,15c-0.3,0-0.6-0.1-0.8-0.3C7,14.2,7,13.4,7.5,13L20.1,0.3c0.5-0.5,1.2-0.5,1.7,0c0.5,0.5,0.5,1.2,0,1.7
	L9.2,14.7C8.9,14.9,8.6,15,8.3,15L8.3,15z M8.3,15"/>
</svg>
